<svg xmlns="http://www.w3.org/2000/svg" width="290.81" height="35" viewBox="0 0 290.81 35"><rect class="svg__rect" x="0" y="0" width="209.8" height="35" fill="#31C4F3"/><rect class="svg__rect" x="207.8" y="0" width="83.00999999999999" height="35" fill="#389AD5"/><path class="svg__text" d="M16.25 14.66L13.61 14.66L13.61 13.47L20.38 13.47L20.38 14.66L17.72 14.66L17.72 22L16.25 22L16.25 14.66ZM25.62 22L24.14 22L24.14 13.47L27.14 13.47Q28.61 13.47 29.42 14.13Q30.22 14.79 30.22 16.05L30.22 16.05Q30.22 16.90 29.81 17.48Q29.39 18.06 28.65 18.37L28.65 18.37L30.57 21.92L30.57 22L28.98 22L27.27 18.71L25.62 18.71L25.62 22ZM25.62 14.66L25.62 17.52L27.14 17.52Q27.89 17.52 28.31 17.15Q28.74 16.77 28.74 16.11L28.74 16.11Q28.74 15.43 28.35 15.05Q27.96 14.68 27.18 14.66L27.18 14.66L25.62 14.66ZM35.39 22L33.85 22L37.07 13.47L38.40 13.47L41.63 22L40.09 22L39.39 20.01L36.08 20.01L35.39 22ZM37.74 15.28L36.50 18.82L38.97 18.82L37.74 15.28ZM47.07 22L45.59 22L45.59 13.47L47.07 13.47L50.89 19.54L50.89 13.47L52.36 13.47L52.36 22L50.87 22L47.07 15.95L47.07 22ZM56.66 19.42L56.66 19.42L58.14 19.42Q58.14 20.15 58.63 20.55Q59.11 20.95 60.00 20.95L60.00 20.95Q60.78 20.95 61.17 20.63Q61.56 20.32 61.56 19.80L61.56 19.80Q61.56 19.24 61.16 18.94Q60.76 18.63 59.73 18.32Q58.70 18.01 58.09 17.63L58.09 17.63Q56.93 16.90 56.93 15.72L56.93 15.72Q56.93 14.69 57.77 14.02Q58.61 13.35 59.95 13.35L59.95 13.35Q60.84 13.35 61.54 13.68Q62.23 14.01 62.63 14.61Q63.03 15.22 63.03 15.96L63.03 15.96L61.56 15.96Q61.56 15.29 61.14 14.91Q60.72 14.54 59.94 14.54L59.94 14.54Q59.21 14.54 58.81 14.85Q58.41 15.16 58.41 15.71L58.41 15.71Q58.41 16.18 58.84 16.50Q59.28 16.81 60.27 17.10Q61.27 17.40 61.87 17.78Q62.48 18.16 62.76 18.65Q63.04 19.13 63.04 19.79L63.04 19.79Q63.04 20.86 62.22 21.49Q61.40 22.12 60.00 22.12L60.00 22.12Q59.08 22.12 58.30 21.77Q57.52 21.43 57.09 20.83Q56.66 20.22 56.66 19.42ZM72.68 22L67.33 22L67.33 13.47L68.81 13.47L68.81 20.82L72.68 20.82L72.68 22ZM77.59 22L76.05 22L79.27 13.47L80.60 13.47L83.83 22L82.28 22L81.58 20.01L78.28 20.01L77.59 22ZM79.93 15.28L78.69 18.82L81.17 18.82L79.93 15.28ZM89.46 14.66L86.83 14.66L86.83 13.47L93.59 13.47L93.59 14.66L90.93 14.66L90.93 22L89.46 22L89.46 14.66ZM102.93 22L97.35 22L97.35 13.47L102.89 13.47L102.89 14.66L98.83 14.66L98.83 17.02L102.34 17.02L102.34 18.19L98.83 18.19L98.83 20.82L102.93 20.82L102.93 22ZM112.67 19.42L112.67 19.42L114.15 19.42Q114.15 20.15 114.63 20.55Q115.11 20.95 116.01 20.95L116.01 20.95Q116.78 20.95 117.17 20.63Q117.56 20.32 117.56 19.80L117.56 19.80Q117.56 19.24 117.16 18.94Q116.77 18.63 115.74 18.32Q114.71 18.01 114.10 17.63L114.10 17.63Q112.93 16.90 112.93 15.72L112.93 15.72Q112.93 14.69 113.77 14.02Q114.61 13.35 115.95 13.35L115.95 13.35Q116.84 13.35 117.54 13.68Q118.24 14.01 118.64 14.61Q119.04 15.22 119.04 15.96L119.04 15.96L117.56 15.96Q117.56 15.29 117.14 14.91Q116.72 14.54 115.94 14.54L115.94 14.54Q115.22 14.54 114.81 14.85Q114.41 15.16 114.41 15.71L114.41 15.71Q114.41 16.18 114.85 16.50Q115.28 16.81 116.28 17.10Q117.27 17.40 117.88 17.78Q118.48 18.16 118.76 18.65Q119.04 19.13 119.04 19.79L119.04 19.79Q119.04 20.86 118.22 21.49Q117.41 22.12 116.01 22.12L116.01 22.12Q115.08 22.12 114.30 21.77Q113.53 21.43 113.10 20.83Q112.67 20.22 112.67 19.42ZM123.20 19.16L123.20 19.16L123.20 13.47L124.67 13.47L124.67 19.18Q124.67 20.03 125.11 20.48Q125.54 20.93 126.38 20.93L126.38 20.93Q128.09 20.93 128.09 19.13L128.09 19.13L128.09 13.47L129.57 13.47L129.57 19.17Q129.57 20.53 128.70 21.32Q127.83 22.12 126.38 22.12L126.38 22.12Q124.92 22.12 124.06 21.33Q123.20 20.55 123.20 19.16ZM137.25 22L134.14 22L134.14 13.47L137.06 13.47Q138.51 13.47 139.27 14.05Q140.02 14.63 140.02 15.78L140.02 15.78Q140.02 16.36 139.71 16.83Q139.39 17.30 138.78 17.56L138.78 17.56Q139.47 17.75 139.85 18.26Q140.23 18.78 140.23 19.51L140.23 19.51Q140.23 20.71 139.46 21.36Q138.69 22 137.25 22L137.25 22ZM135.62 18.15L135.62 20.82L137.27 20.82Q137.97 20.82 138.36 20.47Q138.75 20.13 138.75 19.51L138.75 19.51Q138.75 18.18 137.39 18.15L137.39 18.15L135.62 18.15ZM135.62 14.66L135.62 17.06L137.08 17.06Q137.77 17.06 138.16 16.75Q138.55 16.43 138.55 15.86L138.55 15.86Q138.55 15.23 138.19 14.95Q137.83 14.66 137.06 14.66L137.06 14.66L135.62 14.66ZM146.38 14.66L143.74 14.66L143.74 13.47L150.51 13.47L150.51 14.66L147.85 14.66L147.85 22L146.38 22L146.38 14.66ZM155.83 22L154.36 22L154.36 13.47L155.83 13.47L155.83 22ZM162.32 14.66L159.69 14.66L159.69 13.47L166.46 13.47L166.46 14.66L163.80 14.66L163.80 22L162.32 22L162.32 14.66ZM175.57 22L170.21 22L170.21 13.47L171.69 13.47L171.69 20.82L175.57 20.82L175.57 22ZM185.27 22L179.69 22L179.69 13.47L185.23 13.47L185.23 14.66L181.17 14.66L181.17 17.02L184.68 17.02L184.68 18.19L181.17 18.19L181.17 20.82L185.27 20.82L185.27 22ZM189.03 19.42L189.03 19.42L190.51 19.42Q190.51 20.15 190.99 20.55Q191.47 20.95 192.37 20.95L192.37 20.95Q193.14 20.95 193.53 20.63Q193.92 20.32 193.92 19.80L193.92 19.80Q193.92 19.24 193.53 18.94Q193.13 18.63 192.10 18.32Q191.07 18.01 190.46 17.63L190.46 17.63Q189.30 16.90 189.30 15.72L189.30 15.72Q189.30 14.69 190.14 14.02Q190.98 13.35 192.32 13.35L192.32 13.35Q193.21 13.35 193.91 13.68Q194.60 14.01 195.00 14.61Q195.40 15.22 195.40 15.96L195.40 15.96L193.92 15.96Q193.92 15.29 193.51 14.91Q193.09 14.54 192.31 14.54L192.31 14.54Q191.58 14.54 191.18 14.85Q190.78 15.16 190.78 15.71L190.78 15.71Q190.78 16.18 191.21 16.50Q191.64 16.81 192.64 17.10Q193.64 17.40 194.24 17.78Q194.84 18.16 195.13 18.65Q195.41 19.13 195.41 19.79L195.41 19.79Q195.41 20.86 194.59 21.49Q193.77 22.12 192.37 22.12L192.37 22.12Q191.45 22.12 190.67 21.77Q189.89 21.43 189.46 20.83Q189.03 20.22 189.03 19.42Z" fill="#FFFFFF"/><path class="svg__text" d="M221.56 17.80L221.56 17.80Q221.56 16.54 222.16 15.54Q222.76 14.55 223.82 13.99Q224.89 13.43 226.24 13.43L226.24 13.43Q227.41 13.43 228.35 13.83Q229.29 14.22 229.91 14.97L229.91 14.97L228.40 16.33Q227.55 15.40 226.38 15.40L226.38 15.40Q226.36 15.40 226.36 15.40L226.36 15.40Q225.28 15.40 224.62 16.06Q223.96 16.71 223.96 17.80L223.96 17.80Q223.96 18.50 224.26 19.04Q224.56 19.59 225.10 19.89Q225.64 20.20 226.34 20.20L226.34 20.20Q227.02 20.20 227.62 19.93L227.62 19.93L227.62 17.62L229.72 17.62L229.72 21.10Q229.00 21.61 228.06 21.89Q227.13 22.17 226.19 22.17L226.19 22.17Q224.87 22.17 223.81 21.61Q222.76 21.05 222.16 20.05Q221.56 19.06 221.56 17.80ZM237.09 22L234.71 22L234.71 13.60L238.55 13.60Q239.69 13.60 240.53 13.98Q241.37 14.35 241.83 15.06Q242.28 15.76 242.28 16.71L242.28 16.71Q242.28 17.62 241.86 18.30Q241.43 18.98 240.64 19.36L240.64 19.36L242.45 22L239.91 22L238.38 19.77L237.09 19.77L237.09 22ZM237.09 15.47L237.09 17.93L238.41 17.93Q239.14 17.93 239.51 17.61Q239.88 17.29 239.88 16.71L239.88 16.71Q239.88 16.12 239.51 15.79Q239.14 15.47 238.41 15.47L238.41 15.47L237.09 15.47ZM253.82 22L247.07 22L247.07 13.60L253.66 13.60L253.66 15.44L249.43 15.44L249.43 16.85L253.16 16.85L253.16 18.63L249.43 18.63L249.43 20.17L253.82 20.17L253.82 22ZM265.36 22L258.62 22L258.62 13.60L265.21 13.60L265.21 15.44L260.98 15.44L260.98 16.85L264.71 16.85L264.71 18.63L260.98 18.63L260.98 20.17L265.36 20.17L265.36 22ZM272.53 22L270.17 22L270.17 13.60L272.53 13.60L272.53 17.09L275.78 13.60L278.39 13.60L274.96 17.32L278.57 22L275.81 22L273.41 18.95L272.53 19.90L272.53 22Z" fill="#C13B3A" x="220.8"/></svg>